<?xml version="1.0" standalone="no"?>
<!DOCTYPE svg PUBLIC "-//W3C//DTD SVG 20010904//EN"
 "http://www.w3.org/TR/2001/REC-SVG-20010904/DTD/svg10.dtd">
<svg version="1.0" xmlns="http://www.w3.org/2000/svg"
 width="300.000000pt" height="300.000000pt" viewBox="0 0 300.000000 300.000000"
 preserveAspectRatio="xMidYMid meet">
<metadata>
Created by potrace 1.10, written by Peter Selinger 2001-2011
</metadata>
<g transform="translate(0.000000,300.000000) scale(0.100000,-0.100000)"
fill="#000000" stroke="none">
<path d="M325 2993 c-61 -7 -77 -15 -121 -55 -79 -73 -74 22 -74 -1438 0
-1443 -4 -1364 67 -1431 49 -48 73 -59 120 -58 l38 0 -60 28 c-68 32 -97 60
-120 113 -13 33 -15 188 -15 1353 0 1286 0 1317 20 1354 23 46 69 87 107 96
16 3 39 14 53 25 14 11 23 19 20 18 -3 0 -18 -3 -35 -5z"/>
<path d="M1620 2992 c0 -6 4 -12 9 -14 5 -1 11 -10 13 -18 3 -13 -79 -16 -672
-20 -768 -6 -706 2 -755 -94 -22 -44 -25 -63 -25 -152 0 -70 4 -105 13 -112 8
-7 84 -12 194 -13 133 -2 183 -6 187 -15 2 -7 2 -15 -1 -18 -4 -3 -89 -6 -189
-6 -171 0 -184 -1 -194 -19 -7 -13 -10 -395 -10 -1168 0 -1096 1 -1150 19
-1189 22 -48 60 -80 110 -94 22 -6 242 -10 540 -10 277 0 506 -2 509 -5 3 -2
-1 -11 -8 -20 -17 -21 -7 -29 19 -15 23 12 28 49 9 68 -9 9 -143 12 -543 12
-508 0 -531 1 -562 20 -67 41 -63 -41 -63 1235 l0 1155 184 0 c154 0 187 3
200 16 9 8 16 23 16 33 0 37 -18 41 -212 41 l-188 0 0 110 c0 125 11 159 63
190 31 19 55 20 699 20 593 0 668 2 682 16 27 26 18 56 -21 68 -13 4 -23 3
-23 -2z"/>
<path d="M1788 2989 c-21 -12 -24 -49 -6 -67 8 -8 56 -12 150 -12 156 0 185
-9 218 -63 17 -27 20 -51 20 -144 l0 -113 -718 0 c-545 0 -721 -3 -730 -12
-18 -18 -14 -56 7 -68 13 -7 260 -10 730 -10 l711 0 0 -1157 c0 -1131 -1
-1159 -20 -1190 -37 -61 -50 -63 -354 -63 -236 0 -277 -2 -290 -16 -9 -8 -16
-22 -16 -29 0 -18 28 -45 47 -45 14 0 14 2 0 18 -10 10 -17 21 -17 25 0 3 125
7 278 9 313 3 320 5 370 80 l27 42 3 1162 c2 1049 1 1164 -14 1178 -14 14 -91
16 -724 16 -683 0 -741 2 -715 28 4 4 329 9 723 12 l716 5 8 44 c14 81 3 206
-22 246 -36 59 -67 69 -219 72 -74 2 -139 7 -144 12 -5 5 -4 18 2 30 13 23 6
26 -21 10z"/>
<path d="M2041 2983 c6 -7 30 -18 53 -24 27 -7 56 -26 84 -55 l42 -44 0 -93
c1 -50 0 -658 0 -1351 -1 -1047 -3 -1263 -14 -1285 -22 -40 -66 -76 -121 -97
l-50 -19 34 -3 c18 -2 46 2 62 8 41 18 106 92 118 136 15 54 15 2634 0 2687
-11 40 -66 109 -103 129 -12 7 -42 15 -68 18 -38 5 -45 4 -37 -7z"/>
<path d="M2493 2989 c-17 -5 -43 -23 -57 -40 l-26 -31 0 -1259 0 -1259 97
-195 c54 -107 104 -197 112 -200 36 -14 54 10 151 206 l100 199 0 1241 c0
1112 -2 1244 -16 1274 -19 40 -46 59 -94 68 l-35 7 27 -23 c15 -12 39 -31 53
-42 l26 -20 -1 -1258 0 -1257 -93 -185 c-50 -102 -96 -185 -102 -185 -6 0 -52
83 -103 185 l-92 185 0 1253 c0 1372 -4 1280 59 1307 16 6 32 18 35 26 6 16 4
16 -41 3z"/>
<path d="M1700 2950 c0 -5 11 -10 25 -10 14 0 25 5 25 10 0 6 -11 10 -25 10
-14 0 -25 -4 -25 -10z"/>
<path d="M2491 2916 c-19 -20 -21 -34 -21 -143 0 -93 3 -123 14 -133 19 -15
290 -10 306 6 5 5 12 61 14 122 4 107 3 113 -20 141 -24 29 -24 29 -148 29
-116 1 -125 0 -145 -22z m277 -18 c8 -8 12 -50 12 -125 l0 -113 -145 0 -145 0
0 106 c0 58 5 114 10 125 10 17 22 19 133 19 82 0 127 -4 135 -12z"/>
<path d="M2578 2713 c29 -2 74 -2 100 0 26 2 2 3 -53 3 -55 0 -76 -1 -47 -3z"/>
<path d="M308 2643 c34 -2 90 -2 125 0 34 2 6 3 -63 3 -69 0 -97 -1 -62 -3z"/>
<path d="M520 2646 c0 -2 7 -6 15 -10 8 -3 15 -1 15 4 0 6 -7 10 -15 10 -8 0
-15 -2 -15 -4z"/>
<path d="M622 2645 c8 -9 928 -11 928 -2 0 4 -210 7 -467 7 -256 0 -464 -2
-461 -5z"/>
<path d="M1653 2643 c54 -2 139 -2 190 0 51 1 7 3 -98 3 -104 0 -146 -2 -92
-3z"/>
<path d="M2118 2643 c7 -3 16 -2 19 1 4 3 -2 6 -13 5 -11 0 -14 -3 -6 -6z"/>
<path d="M2486 2584 c-19 -19 -22 -134 -4 -152 8 -8 57 -12 153 -12 96 0 145
4 153 12 7 7 12 40 12 78 0 38 -5 71 -12 78 -8 8 -56 12 -149 12 -112 0 -141
-3 -153 -16z m294 -79 l0 -65 -145 0 -145 0 0 65 0 65 145 0 145 0 0 -65z"/>
<path d="M2528 2493 c7 -3 16 -2 19 1 4 3 -2 6 -13 5 -11 0 -14 -3 -6 -6z"/>
<path d="M2608 2493 c29 -2 74 -2 100 0 26 2 2 3 -53 3 -55 0 -76 -1 -47 -3z"/>
<path d="M645 2550 c3 -5 12 -10 20 -10 8 0 17 5 20 10 4 6 -5 10 -20 10 -15
0 -24 -4 -20 -10z"/>
<path d="M2493 2375 l-23 -16 0 -953 c0 -727 3 -955 12 -964 8 -8 57 -12 154
-12 136 0 144 1 158 22 14 20 16 127 16 958 0 792 -2 939 -14 956 -13 17 -29
19 -148 22 -110 2 -137 0 -155 -13z m287 -965 l0 -950 -145 0 -145 0 0 950 0
950 145 0 145 0 0 -950z"/>
<path d="M530 2207 c-13 -7 -35 -28 -47 -46 -20 -30 -23 -46 -23 -138 0 -113
10 -146 56 -182 24 -19 40 -21 143 -21 99 0 121 3 149 20 47 29 62 73 62 178
0 67 4 93 15 102 8 7 15 20 15 30 0 23 -34 52 -53 45 -8 -4 -29 1 -46 9 -38
20 -233 22 -271 3z m257 -32 c19 -8 44 -15 55 -15 17 0 19 -4 13 -22 -5 -13
-11 -68 -15 -123 -3 -55 -10 -108 -14 -118 -16 -35 -60 -47 -171 -47 -104 0
-107 1 -136 29 -28 29 -29 32 -29 136 0 116 6 137 48 159 37 21 200 21 249 1z"/>
<path d="M648 2160 c-118 -7 -122 -11 -123 -139 0 -92 2 -101 24 -125 23 -24
31 -26 111 -26 73 0 92 3 114 21 22 17 26 28 26 74 0 40 -4 54 -16 59 -17 6
-30 -1 -70 -41 -31 -31 -45 -29 -81 10 -55 58 -51 90 5 42 17 -14 36 -25 44
-25 15 0 64 49 92 91 17 26 16 27 -11 45 -24 16 -42 18 -115 14z m105 -28 c15
-6 11 -14 -27 -51 l-45 -44 -32 27 c-36 31 -55 30 -76 -1 -14 -21 -12 -25 38
-78 28 -30 60 -55 70 -55 9 0 36 19 58 43 l41 42 0 -42 c0 -62 -16 -73 -111
-73 -118 0 -119 1 -119 120 0 84 3 101 18 109 19 12 157 13 185 3z"/>
<path d="M1042 2048 c-16 -16 -15 -43 2 -57 9 -8 134 -10 441 -9 395 3 429 4
439 21 8 12 8 22 0 35 -10 16 -44 17 -440 20 -326 2 -433 -1 -442 -10z m858
-28 c0 -7 -147 -10 -421 -10 -277 0 -418 3 -414 10 8 14 835 14 835 0z"/>
<path d="M545 1716 c-16 -7 -41 -26 -55 -41 -23 -24 -25 -35 -28 -140 -4 -128
6 -162 61 -196 28 -17 46 -19 149 -17 114 3 117 4 148 33 41 40 53 85 49 193
-4 102 -20 134 -80 164 -42 22 -198 24 -244 4z m248 -40 l32 -22 3 -125 c3
-123 2 -125 -23 -149 -24 -23 -37 -25 -126 -28 -108 -4 -149 6 -174 42 -18 25
-21 216 -4 247 22 42 63 56 165 56 81 0 100 -3 127 -21z"/>
<path d="M559 1656 c-29 -21 -39 -55 -39 -133 0 -60 5 -85 20 -110 l20 -33
100 0 c136 0 140 4 140 143 0 136 -5 141 -134 143 -55 1 -98 -3 -107 -10z
m205 -32 c20 -19 23 -183 4 -202 -8 -8 -46 -12 -103 -12 -57 0 -95 4 -103 12
-16 16 -16 190 0 206 19 19 183 16 202 -4z"/>
<path d="M1046 1554 c-19 -18 -20 -28 -6 -55 10 -18 26 -19 438 -19 320 0 431
3 440 12 18 18 14 56 -7 68 -13 6 -168 10 -435 10 -364 0 -417 -2 -430 -16z
m848 -35 c-7 -13 -821 -12 -829 1 -4 6 131 11 387 12 408 3 452 2 442 -13z"/>
<path d="M523 1211 c-55 -34 -65 -68 -61 -196 3 -110 4 -115 32 -144 41 -43
83 -54 192 -49 106 4 136 19 166 79 23 45 25 192 3 246 -27 66 -54 78 -185 81
-101 2 -119 0 -147 -17z m256 -25 c49 -26 53 -37 52 -163 0 -115 -1 -119 -26
-140 -24 -21 -36 -23 -141 -23 -114 0 -116 0 -145 29 -28 29 -29 31 -29 138 0
114 4 126 50 157 32 21 198 23 239 2z"/>
<path d="M550 1150 c-11 -11 -22 -31 -26 -46 -10 -38 2 -182 16 -199 10 -12
38 -15 120 -15 139 0 140 1 140 136 0 137 -6 144 -135 144 -81 0 -98 -3 -115
-20z m218 -22 c19 -19 16 -183 -4 -202 -19 -20 -183 -23 -202 -4 -16 16 -16
190 0 206 8 8 46 12 103 12 57 0 95 -4 103 -12z"/>
<path d="M1042 1058 c-17 -17 -15 -42 6 -61 17 -15 61 -17 431 -17 265 0 419
4 432 10 21 12 25 50 7 68 -17 17 -859 17 -876 0z m853 -28 c4 -7 -137 -10
-415 -10 -278 0 -419 3 -415 10 8 14 822 14 830 0z"/>
<path d="M516 709 c-46 -36 -56 -69 -56 -179 0 -170 30 -200 203 -200 172 0
199 24 205 185 5 119 -9 164 -60 195 -28 17 -50 20 -149 20 -103 0 -119 -2
-143 -21z m277 -23 c31 -14 37 -42 37 -161 0 -113 -1 -116 -27 -141 -27 -25
-31 -25 -146 -22 -116 3 -119 4 -143 31 -22 26 -24 36 -24 137 0 99 2 111 23
135 14 16 38 28 65 33 48 8 187 0 215 -12z"/>
<path d="M634 672 c-98 -4 -108 -16 -112 -131 -3 -72 0 -91 17 -118 15 -24 28
-33 48 -34 160 -3 173 -1 193 23 16 19 19 39 20 124 0 136 -8 143 -166 136z
m130 -38 c12 -12 16 -37 16 -104 0 -80 -2 -90 -22 -104 -26 -18 -141 -22 -182
-6 -26 9 -26 11 -26 109 0 120 0 120 117 121 61 0 86 -4 97 -16z"/>
<path d="M608 473 c7 -3 16 -2 19 1 4 3 -2 6 -13 5 -11 0 -14 -3 -6 -6z"/>
<path d="M648 473 c6 -2 18 -2 25 0 6 3 1 5 -13 5 -14 0 -19 -2 -12 -5z"/>
<path d="M1049 562 c-22 -15 -25 -42 -7 -60 9 -9 120 -12 439 -12 365 0 428 2
439 15 14 17 5 65 -13 65 -626 6 -841 4 -858 -8z m851 -33 c0 -5 -183 -9 -420
-9 -270 0 -420 4 -420 10 0 6 142 11 393 12 405 3 447 2 447 -13z"/>
<path d="M2516 394 c-22 -21 -21 -24 20 -107 48 -98 59 -109 108 -105 40 3 42
5 83 83 69 131 60 145 -96 145 -77 0 -103 -4 -115 -16z m234 -19 c0 -3 -18
-41 -40 -85 -38 -75 -42 -80 -73 -80 -31 0 -35 5 -72 78 -22 42 -41 80 -43 85
-2 4 48 7 112 7 64 0 116 -2 116 -5z"/>
<path d="M1288 143 c7 -3 16 -2 19 1 4 3 -2 6 -13 5 -11 0 -14 -3 -6 -6z"/>
<path d="M1918 143 c7 -3 16 -2 19 1 4 3 -2 6 -13 5 -11 0 -14 -3 -6 -6z"/>
<path d="M1433 43 c9 -2 25 -2 35 0 9 3 1 5 -18 5 -19 0 -27 -2 -17 -5z"/>
</g>
</svg>
