<svg version="1.1" id="Layer_1" xmlns="http://www.w3.org/2000/svg" xmlns:xlink="http://www.w3.org/1999/xlink" x="0px" y="0px"
	 width="100%" viewBox="0 0 288 175" enable-background="new 0 0 288 175" xml:space="preserve">
<path fill="#FD8539" opacity="1.000000" stroke="none" 
	d="
M1.000000,72.000000 
	C1.000000,48.383450 1.000000,24.766901 1.000000,1.000000 
	C46.020790,1.000000 91.041733,1.000000 136.531250,1.421395 
	C136.670074,4.294640 136.340317,6.746490 135.556519,9.323080 
	C133.049042,9.915067 130.995575,10.382314 128.559525,10.542354 
	C125.650780,10.426540 123.124634,10.617935 120.529510,10.501870 
	C119.672218,10.455801 118.883904,10.717191 117.804985,10.927423 
	C114.359131,13.455813 111.203873,16.035362 108.048622,18.614910 
	C108.325729,19.107056 108.602837,19.599201 108.879944,20.091347 
	C105.458557,20.091347 102.037170,20.091347 98.357025,20.091347 
	C98.192078,22.901972 98.048615,25.346558 97.444351,27.823715 
	C92.823074,27.871731 88.661934,27.844896 84.502266,27.911251 
	C75.326439,28.057625 68.895813,34.516296 68.883667,43.664696 
	C68.854500,65.632698 68.846748,87.600792 68.881630,109.568771 
	C68.905136,124.374413 69.016022,139.179916 69.015602,154.226685 
	C68.925697,154.634781 68.908012,154.801712 68.600937,154.853943 
	C68.195152,153.819626 68.014351,152.902924 67.972496,151.979919 
	C67.624695,144.311020 67.302544,136.640961 66.980911,128.505615 
	C66.989166,99.569496 66.989166,71.099022 66.989166,42.628540 
	C66.656342,42.627930 66.323509,42.627323 65.990685,42.626717 
	C65.990685,50.416264 65.990685,58.205807 65.554672,65.996506 
	C58.915440,67.287849 52.649399,68.341988 46.535885,69.969177 
	C43.541763,70.766106 40.831081,72.627937 37.585850,73.932228 
	C33.121662,73.571304 29.063738,73.285957 24.556446,73.000458 
	C16.404718,72.666870 8.702359,72.333435 1.000000,72.000000 
z"/>
<path fill="#E26D24" opacity="1.000000" stroke="none" 
	d="
M238.000000,176.000000 
	C213.645767,176.000000 189.291550,176.000000 164.526825,175.643890 
	C165.736771,172.588501 167.357224,169.889206 169.415405,167.147949 
	C171.977890,167.097153 174.136032,167.310074 176.214951,166.996964 
	C177.478668,166.806641 178.620071,165.804214 180.120178,164.964325 
	C184.622772,162.497482 187.611740,159.310333 188.345871,154.321350 
	C188.360519,154.250153 188.244522,154.162476 188.525635,153.838440 
	C188.839233,142.015488 188.871719,130.516556 188.977325,118.558136 
	C189.005020,114.063431 188.959595,110.028214 188.989929,105.582336 
	C189.018860,103.785110 188.972000,102.398521 188.999405,100.682198 
	C189.027100,99.906868 188.980545,99.461273 189.012711,98.628311 
	C189.058960,97.449570 189.026489,96.658188 189.230743,95.643784 
	C198.879501,85.874161 208.291534,76.327568 218.055817,66.907272 
	C220.009338,68.645638 221.901901,70.059509 223.158432,71.906158 
	C227.281372,77.965370 231.458130,84.019913 235.074219,90.383110 
	C238.711807,96.784164 242.169052,103.370728 244.838058,110.214233 
	C247.185104,116.232193 248.333038,122.717819 250.012665,129.463989 
	C250.018982,134.956635 250.023178,139.982178 249.777435,145.315598 
	C249.358475,148.085556 249.189468,150.547653 249.014771,153.006943 
	C249.009064,153.004135 249.003662,153.003311 248.656601,153.115997 
	C247.588074,155.162338 246.991180,157.154053 246.121887,159.018799 
	C243.470932,164.705475 240.715057,170.343216 238.000000,176.000000 
z"/>
<path fill="#FD9150" opacity="1.000000" stroke="none" 
	d="
M217.000000,1.000000 
	C240.941849,1.000000 264.883698,1.000000 289.000000,1.000000 
	C289.000000,37.020706 289.000000,73.041695 288.656891,109.482025 
	C285.803772,107.787804 283.127716,105.840897 280.811523,103.532845 
	C268.394073,91.159012 256.109650,78.651520 243.676071,66.294052 
	C240.673920,63.310268 237.280792,60.719856 233.913681,57.703903 
	C233.192444,56.945175 232.624969,56.431095 231.995270,55.613209 
	C231.285553,54.545403 230.638062,53.781403 229.823135,52.725693 
	C226.455368,49.256863 223.255020,46.079739 220.042267,42.676743 
	C220.029861,42.450867 220.012497,41.998768 220.249725,41.693623 
	C220.390366,39.133476 221.198502,35.793083 220.032440,34.821114 
	C216.077911,31.524822 217.066208,27.423838 217.023209,23.439686 
	C216.942474,15.960579 216.999969,8.479980 217.000000,1.000000 
z"/>
<path fill="#E18145" opacity="1.000000" stroke="none" 
	d="
M234.067444,57.948547 
	C237.280792,60.719856 240.673920,63.310268 243.676071,66.294052 
	C256.109650,78.651520 268.394073,91.159012 280.811523,103.532845 
	C283.127716,105.840897 285.803772,107.787804 288.656891,109.950684 
	C289.000000,131.912140 289.000000,153.824280 289.000000,176.000000 
	C274.646851,176.000000 260.292084,176.000000 245.534897,175.617310 
	C247.099319,167.941971 250.328156,160.869080 249.003662,153.003311 
	C249.003662,153.003311 249.009064,153.004135 249.364594,152.879761 
	C249.822525,150.172821 249.924942,147.590286 250.027374,145.007736 
	C250.023178,139.982178 250.018982,134.956635 250.258911,129.133621 
	C250.018478,122.521507 249.905991,116.645454 248.959290,110.907036 
	C247.645432,102.942871 246.187866,94.938576 243.892929,87.218681 
	C241.745163,79.993843 238.936386,72.844322 235.390274,66.211365 
	C233.798065,63.233143 232.025940,61.150433 234.067444,57.948547 
z"/>
<path fill="#FF8134" opacity="1.000000" stroke="none" 
	d="
M37.992119,74.007805 
	C40.831081,72.627937 43.541763,70.766106 46.535885,69.969177 
	C52.649399,68.341988 58.915440,67.287849 65.558334,66.465683 
	C65.998314,84.956779 65.998619,102.979843 65.753433,121.269684 
	C63.912422,122.322243 62.330952,123.733330 60.718613,123.769531 
	C56.816929,123.857124 52.900848,123.303635 48.522522,123.007767 
	C38.981571,123.346176 29.886871,123.407417 20.843006,124.116783 
	C14.194194,124.638306 7.611924,126.008179 1.000000,127.000000 
	C1.000000,108.979103 1.000000,90.958214 1.000000,72.468658 
	C8.702359,72.333435 16.404718,72.666870 24.554165,73.333542 
	C24.999388,74.110886 24.997526,74.555016 24.635162,75.013123 
	C22.852339,76.354248 21.430012,77.681389 19.936378,79.407120 
	C17.748133,85.373779 19.930729,89.226677 23.893337,93.371597 
	C27.931114,97.595139 31.728144,96.166351 35.501064,94.455574 
	C41.208141,91.867783 44.195335,87.008560 42.765366,82.932678 
	C41.661652,79.786728 39.617912,76.970581 37.992119,74.007805 
z"/>
<path fill="#FD8B43" opacity="1.000000" stroke="none" 
	d="
M1.000000,127.468658 
	C7.611924,126.008179 14.194194,124.638306 20.843006,124.116783 
	C29.886871,123.407417 38.981571,123.346176 48.560234,123.399689 
	C49.665771,124.479378 50.181252,125.654732 50.878838,125.775146 
	C55.892414,126.640587 60.942955,127.291916 66.111755,128.205399 
	C66.445038,128.641739 66.688675,128.832291 66.972649,128.971252 
	C67.302544,136.640961 67.624695,144.311020 67.972496,151.979919 
	C68.014351,152.902924 68.195152,153.819626 68.875626,155.079865 
	C71.896484,158.302673 74.353279,161.184891 76.934837,164.364532 
	C77.711006,165.124252 78.362404,165.586517 78.846130,166.268707 
	C78.137177,166.981186 77.595901,167.473740 76.635605,167.956848 
	C64.482048,165.524277 52.651394,164.271622 40.399857,164.833450 
	C36.382309,161.709015 32.620735,158.778198 28.859159,155.847366 
	C29.925924,156.338928 30.992689,156.830490 32.059456,157.322052 
	C28.601982,160.623962 25.144508,163.925873 21.687035,167.227783 
	C21.096375,166.547958 20.505716,165.868134 19.915058,165.188309 
	C21.611853,166.458176 23.308647,167.728043 24.794008,169.309998 
	C23.053677,170.086533 21.379744,170.295532 20.024111,171.065170 
	C16.496557,173.067886 11.201466,171.109283 9.000000,176.000000 
	C6.353974,176.000000 3.707947,176.000000 1.000000,176.000000 
	C1.000000,159.979156 1.000000,143.958237 1.000000,127.468658 
z"/>
<path fill="#FE8A41" opacity="1.000000" stroke="none" 
	d="
M216.531342,1.000000 
	C216.999969,8.479980 216.942474,15.960579 217.023209,23.439686 
	C217.066208,27.423838 216.077911,31.524822 220.032440,34.821114 
	C221.198502,35.793083 220.390366,39.133476 219.894424,41.542652 
	C217.246552,41.461533 215.191208,41.226242 212.753571,40.893486 
	C207.153046,40.614056 201.934814,40.432087 196.358185,40.098118 
	C194.825302,38.606037 193.287796,37.442894 192.534561,35.897495 
	C187.173309,24.897697 184.049515,13.315661 184.000000,1.000000 
	C194.687561,1.000000 205.375122,1.000000 216.531342,1.000000 
z"/>
<path fill="#FB792A" opacity="1.000000" stroke="none" 
	d="
M183.531342,1.000000 
	C184.049515,13.315661 187.173309,24.897697 192.534561,35.897495 
	C193.287796,37.442894 194.825302,38.606037 196.079590,40.338467 
	C193.883804,42.645939 191.608231,44.561054 189.315704,46.004456 
	C189.464691,37.722729 186.362961,31.914482 178.781555,28.429283 
	C176.375046,27.745333 174.184952,27.350025 172.079132,26.685583 
	C170.261642,23.588428 168.365189,20.756847 166.457092,17.933125 
	C162.641434,12.286473 158.819412,6.644124 155.000000,0.999998 
	C164.354233,1.000000 173.708450,1.000000 183.531342,1.000000 
z"/>
<path fill="#FC9757" opacity="1.000000" stroke="none" 
	d="
M40.655830,165.027054 
	C52.651394,164.271622 64.482048,165.524277 76.621407,167.970001 
	C77.026230,167.992645 77.014961,167.971130 77.252060,168.212128 
	C78.367287,168.606964 79.245407,168.760818 80.354553,168.915558 
	C80.585579,168.916443 81.045372,168.962097 81.102463,169.272781 
	C81.796074,170.027924 82.432587,170.472366 83.349609,170.973480 
	C84.094246,171.344894 84.558388,171.659622 85.062988,172.319183 
	C85.402298,173.776001 85.701149,174.888000 86.000000,176.000000 
	C67.645775,176.000000 49.291542,176.000000 30.543600,175.657501 
	C31.680246,169.872284 35.769676,167.042862 40.655830,165.027054 
z"/>
<path fill="#E6742D" opacity="1.000000" stroke="none" 
	d="
M168.977661,167.189911 
	C167.357224,169.889206 165.736771,172.588501 164.058167,175.643890 
	C147.312439,176.000000 130.624878,176.000000 113.458282,175.547546 
	C113.671059,171.942261 110.605080,166.934067 117.574272,167.021866 
	C134.706711,167.237656 151.842957,167.153458 168.977661,167.189911 
z"/>
<path fill="#FD8133" opacity="1.000000" stroke="none" 
	d="
M154.532059,0.999998 
	C158.819412,6.644124 162.641434,12.286473 166.457092,17.933125 
	C168.365189,20.756847 170.261642,23.588428 171.701721,26.697796 
	C170.484818,26.969044 169.729553,26.958946 168.704468,26.727257 
	C167.278702,26.333324 166.122757,26.160982 164.796234,25.701168 
	C163.034714,23.708324 161.443741,22.002956 159.421005,20.223129 
	C157.350357,20.112947 155.635437,20.370893 154.090942,19.970819 
	C151.919617,19.408377 148.431046,18.793339 148.022766,17.440939 
	C146.131195,11.175238 141.310089,10.021773 136.010559,9.198339 
	C136.340317,6.746490 136.670074,4.294640 136.999908,1.421395 
	C142.688034,1.000000 148.376083,1.000000 154.532059,0.999998 
z"/>
<path fill="#CA7342" opacity="1.000000" stroke="none" 
	d="
M169.415405,167.147949 
	C151.842957,167.153458 134.706711,167.237656 117.574272,167.021866 
	C110.605080,166.934067 113.671059,171.942261 112.989624,175.547546 
	C106.645599,176.000000 100.291206,176.000000 93.407837,175.637024 
	C91.502342,171.216461 88.050987,172.098846 85.022522,171.974350 
	C84.558388,171.659622 84.094246,171.344894 83.268021,170.679443 
	C82.285744,169.873169 81.665558,169.417633 81.045372,168.962097 
	C81.045372,168.962097 80.585579,168.916443 80.099808,168.694565 
	C78.747681,168.305496 77.881325,168.138321 77.014961,167.971130 
	C77.014961,167.971130 77.026230,167.992645 77.040428,167.979477 
	C77.595901,167.473740 78.137177,166.981186 78.926102,166.118637 
	C79.361160,165.618057 79.528000,165.465027 79.949005,165.520020 
	C81.154564,165.834991 82.085396,165.919556 83.477524,166.083542 
	C93.627060,166.114670 103.315308,166.066376 113.451736,166.098175 
	C116.931480,166.118744 119.963036,166.059219 123.366760,166.082275 
	C124.494873,166.109665 125.250824,166.054443 126.373131,166.080887 
	C127.483925,166.109802 128.228363,166.057068 129.438019,166.090652 
	C144.442886,166.180634 158.982773,166.225189 173.521927,166.142441 
	C175.621887,166.130478 177.718338,165.507050 179.816422,165.166595 
	C178.620071,165.804214 177.478668,166.806641 176.214951,166.996964 
	C174.136032,167.310074 171.977890,167.097153 169.415405,167.147949 
z"/>
<path fill="#5DB8E5" opacity="1.000000" stroke="none" 
	d="
M40.399857,164.833450 
	C35.769676,167.042862 31.680246,169.872284 30.074944,175.657501 
	C30.000000,176.000000 29.500000,176.000000 29.286518,175.640488 
	C27.717173,173.186615 26.361309,171.092255 25.005444,168.997894 
	C23.308647,167.728043 21.611853,166.458176 19.915058,165.188309 
	C20.505716,165.868134 21.096375,166.547958 21.687035,167.227783 
	C25.144508,163.925873 28.601982,160.623962 32.059456,157.322052 
	C30.992689,156.830490 29.925924,156.338928 28.859159,155.847366 
	C32.620735,158.778198 36.382309,161.709015 40.399857,164.833450 
z"/>
<path fill="#E27634" opacity="1.000000" stroke="none" 
	d="
M248.656601,153.115997 
	C250.328156,160.869080 247.099319,167.941971 245.066238,175.617310 
	C242.958328,176.000000 240.916672,176.000000 238.437500,176.000000 
	C240.715057,170.343216 243.470932,164.705475 246.121887,159.018799 
	C246.991180,157.154053 247.588074,155.162338 248.656601,153.115997 
z"/>
<path fill="#FA9657" opacity="1.000000" stroke="none" 
	d="
M24.794010,169.309998 
	C26.361309,171.092255 27.717173,173.186615 29.036518,175.640488 
	C22.645601,176.000000 16.291203,176.000000 9.468403,176.000000 
	C11.201466,171.109283 16.496557,173.067886 20.024111,171.065170 
	C21.379744,170.295532 23.053677,170.086533 24.794010,169.309998 
z"/>
<path fill="#E58549" opacity="1.000000" stroke="none" 
	d="
M85.062988,172.319183 
	C88.050987,172.098846 91.502342,171.216461 92.939438,175.637024 
	C90.958336,176.000000 88.916664,176.000000 86.437500,176.000000 
	C85.701149,174.888000 85.402298,173.776001 85.062988,172.319183 
z"/>
<path fill="#2DC6EE" opacity="1.000000" stroke="none" 
	d="
M120.598488,10.809330 
	C123.124634,10.617935 125.650780,10.426540 128.575745,10.879057 
	C128.983490,18.961449 129.318924,26.418812 128.890213,33.831982 
	C128.588593,39.047562 130.525040,40.380268 135.413391,40.119019 
	C142.501328,39.740219 149.624252,40.016388 156.446625,40.283199 
	C147.093491,40.747375 138.025986,40.941555 128.499619,41.047928 
	C121.226112,40.937946 114.398422,40.650047 107.601288,40.983932 
	C102.806145,41.219482 99.200233,40.056530 97.368408,35.242378 
	C97.721046,32.570770 97.813095,30.180956 97.905136,27.791142 
	C98.048615,25.346558 98.192078,22.901972 98.357025,20.091347 
	C102.037170,20.091347 105.458557,20.091347 108.879944,20.091347 
	C108.602837,19.599201 108.325729,19.107056 108.048622,18.614910 
	C111.203873,16.035362 114.359131,13.455813 118.016861,10.954556 
	C119.212387,10.958340 119.905434,10.883835 120.598488,10.809330 
z"/>
<path fill="#29B2D7" opacity="1.000000" stroke="none" 
	d="
M156.732254,40.013203 
	C149.624252,40.016388 142.501328,39.740219 135.413391,40.119019 
	C130.525040,40.380268 128.588593,39.047562 128.890213,33.831982 
	C129.318924,26.418812 128.983490,18.961449 128.958344,11.186264 
	C130.995575,10.382314 133.049042,9.915067 135.556534,9.323080 
	C141.310089,10.021773 146.131195,11.175238 148.022766,17.440939 
	C148.431046,18.793339 151.919617,19.408377 154.090942,19.970819 
	C155.635437,20.370893 157.350357,20.112947 159.353348,20.635990 
	C159.833557,23.576393 159.949631,26.029480 159.984726,28.936924 
	C159.922379,30.925230 159.941025,32.459175 159.939133,34.359612 
	C159.927567,34.970634 159.936508,35.215164 159.887787,35.771709 
	C158.797485,37.393551 157.764862,38.703377 156.732254,40.013203 
z"/>
<path fill="#0A3D78" opacity="1.000000" stroke="none" 
	d="
M97.444344,27.823715 
	C97.813095,30.180956 97.721046,32.570770 96.886429,35.248783 
	C91.809067,35.574547 87.474258,35.612110 83.144714,35.541046 
	C83.149963,35.432419 82.831070,35.429379 82.831070,35.429379 
	C82.831070,35.429379 82.735748,35.690834 82.389160,35.563713 
	C80.233986,37.330315 78.425407,39.224033 76.271851,41.338402 
	C75.609428,44.045975 75.291977,46.532898 74.733841,49.013268 
	C74.493149,49.006710 74.011658,48.997986 73.760239,49.328472 
	C73.341217,50.629337 73.028023,51.599583 73.027138,52.570114 
	C73.000435,81.966270 72.990654,111.362488 73.046120,140.758575 
	C73.048782,142.173141 73.668846,143.586533 74.246277,144.997650 
	C74.491150,144.994812 74.980820,144.984146 74.984467,145.361206 
	C74.985817,146.492401 74.983528,147.246552 74.635529,148.123352 
	C73.679146,150.306244 73.068474,152.366486 72.543114,154.138901 
	C71.581367,154.096207 70.334595,154.040848 69.087822,153.985489 
	C69.016022,139.179916 68.905136,124.374413 68.881630,109.568771 
	C68.846748,87.600792 68.854500,65.632698 68.883667,43.664696 
	C68.895813,34.516296 75.326439,28.057625 84.502266,27.911251 
	C88.661934,27.844896 92.823074,27.871731 97.444344,27.823715 
z"/>
<path fill="#FF903B" opacity="1.000000" stroke="none" 
	d="
M24.995663,74.999138 
	C24.997526,74.555016 24.999388,74.110886 25.003532,73.333679 
	C29.063738,73.285957 33.121662,73.571304 37.585854,73.932228 
	C39.617912,76.970581 41.661652,79.786728 42.765366,82.932678 
	C44.195335,87.008560 41.208141,91.867783 35.501064,94.455574 
	C31.728144,96.166351 27.931114,97.595139 23.893337,93.371597 
	C19.930729,89.226677 17.748133,85.373779 20.264391,79.350327 
	C22.107698,77.596344 23.551682,76.297745 24.995663,74.999138 
z"/>
<path fill="#0B3F78" opacity="1.000000" stroke="none" 
	d="
M69.015602,154.226685 
	C70.334595,154.040848 71.581367,154.096207 72.543114,154.138901 
	C73.068474,152.366486 73.679146,150.306244 74.640228,148.490524 
	C75.513336,150.152985 76.036041,151.570953 76.788139,153.266815 
	C79.226242,155.215775 81.434944,156.886856 83.693794,158.732635 
	C83.743942,158.907349 83.981918,159.182434 84.291092,159.382385 
	C86.077209,159.730194 87.554153,159.878067 89.360184,160.270996 
	C96.796944,160.680817 103.904617,160.845581 111.344131,161.256104 
	C116.101334,161.666885 120.527573,161.974014 124.951759,161.946976 
	C127.904991,161.928909 129.301819,162.993713 128.972794,166.004333 
	C128.228363,166.057068 127.483925,166.109802 126.163269,165.872375 
	C124.722900,165.721359 123.858749,165.860519 122.994598,165.999695 
	C119.963036,166.059219 116.931480,166.118744 113.122719,165.844772 
	C105.946976,165.342087 99.547867,165.033920 93.150124,165.060196 
	C89.770927,165.074081 86.394119,165.670624 83.016235,166.004120 
	C82.085396,165.919556 81.154564,165.834991 80.155273,165.346390 
	C78.994568,164.650589 77.902313,164.358841 76.810066,164.067093 
	C74.353279,161.184891 71.896484,158.302673 69.165009,155.194550 
	C68.908012,154.801712 68.925697,154.634781 69.015602,154.226685 
z"/>
<path fill="#FF8325" opacity="1.000000" stroke="none" 
	d="
M66.980911,128.505615 
	C66.688675,128.832291 66.445038,128.641739 66.119255,127.766769 
	C65.997490,125.090248 65.998207,123.046577 65.998932,121.002907 
	C65.998619,102.979843 65.998314,84.956779 65.994347,66.464539 
	C65.990685,58.205807 65.990685,50.416264 65.990685,42.626717 
	C66.323509,42.627323 66.656342,42.627930 66.989166,42.628540 
	C66.989166,71.099022 66.989166,99.569496 66.980911,128.505615 
z"/>
<path fill="#29B2D7" opacity="1.000000" stroke="none" 
	d="
M120.529510,10.501869 
	C119.905434,10.883835 119.212387,10.958340 118.307465,11.005713 
	C118.883904,10.717191 119.672218,10.455801 120.529510,10.501869 
z"/>
<path fill="#D1BA88" opacity="1.000000" stroke="none" 
	d="
M217.703568,66.780975 
	C208.291534,76.327568 198.879501,85.874161 188.910339,95.753845 
	C186.229965,97.742264 184.106750,99.397598 181.747162,101.012192 
	C181.510773,100.971443 181.031616,101.009445 180.768524,100.825287 
	C178.464905,98.520195 177.328094,99.928421 175.753342,101.511864 
	C165.716370,111.604332 155.436829,121.457848 145.504684,131.650726 
	C142.924637,134.298492 140.408936,135.015656 137.181992,133.862534 
	C137.442261,132.775513 137.620758,131.989166 138.097580,131.019043 
	C149.388382,119.934624 160.395050,109.048233 171.359375,98.119347 
	C173.188049,96.296593 174.661636,94.607155 177.700302,96.449295 
	C178.651230,97.025764 181.146622,95.943939 182.389160,94.943336 
	C184.293732,93.409592 185.612350,91.173752 187.377243,89.436653 
	C195.529861,81.412407 203.972061,73.667198 211.833496,65.370049 
	C214.789169,62.250565 218.111008,58.567879 217.043274,52.892944 
	C215.938049,53.413239 215.068359,53.583622 214.547546,54.103500 
	C206.086197,62.549503 197.663437,71.034218 189.245575,79.523682 
	C186.917145,81.871918 184.832703,84.513535 182.270981,86.564186 
	C179.826263,88.521164 177.045654,89.437012 176.673447,84.724915 
	C179.179306,83.662552 181.630554,82.986824 183.409973,81.504593 
	C186.569305,78.872940 189.351486,75.781761 192.237808,72.830353 
	C200.534683,64.346382 208.804779,55.836193 217.427078,47.373318 
	C218.792892,48.743793 220.294479,49.930965 220.755844,51.436844 
	C222.464294,57.013134 220.905487,62.097675 217.703568,66.780975 
z"/>
<path fill="#E27B3B" opacity="1.000000" stroke="none" 
	d="
M218.055817,66.907265 
	C220.905487,62.097675 222.464294,57.013134 220.755844,51.436844 
	C220.294479,49.930965 218.792892,48.743793 217.614716,47.069672 
	C218.325333,45.453545 219.190002,44.178078 220.054688,42.902618 
	C223.255020,46.079739 226.455368,49.256863 229.827362,53.062393 
	C230.685196,54.432877 231.371338,55.174950 232.057495,55.917019 
	C232.624969,56.431095 233.192444,56.945175 233.913681,57.703903 
	C232.025940,61.150433 233.798065,63.233143 235.390274,66.211365 
	C238.936386,72.844322 241.745163,79.993843 243.892929,87.218681 
	C246.187866,94.938576 247.645432,102.942871 248.959290,110.907036 
	C249.905991,116.645454 250.018478,122.521507 250.256805,128.666534 
	C248.333038,122.717819 247.185104,116.232193 244.838058,110.214233 
	C242.169052,103.370728 238.711807,96.784164 235.074219,90.383110 
	C231.458130,84.019913 227.281372,77.965370 223.158432,71.906158 
	C221.901901,70.059509 220.009338,68.645638 218.055817,66.907265 
z"/>
<path fill="#0A376A" opacity="1.000000" stroke="none" 
	d="
M181.983536,101.052933 
	C184.106750,99.397598 186.229965,97.742264 188.673599,95.976868 
	C189.026489,96.658188 189.058960,97.449570 188.698898,98.823990 
	C187.539520,101.294685 186.131912,103.174171 186.107712,105.071304 
	C185.921875,119.635750 185.920959,134.204697 186.107315,148.769119 
	C186.131409,150.652771 187.555588,152.518524 188.331223,154.392563 
	C187.611740,159.310333 184.622772,162.497482 180.120178,164.964325 
	C177.718338,165.507050 175.621887,166.130478 173.521927,166.142441 
	C158.982773,166.225189 144.442886,166.180634 129.438019,166.090652 
	C129.301819,162.993713 127.904991,161.928909 124.951759,161.946976 
	C120.527573,161.974014 116.101334,161.666885 111.810524,161.254822 
	C117.622414,160.679443 123.299759,160.351135 128.986374,160.006287 
	C128.995651,159.989716 129.013306,159.956116 129.480377,159.968689 
	C142.385300,159.986771 154.823395,160.034821 167.260666,159.952759 
	C169.169022,159.940170 171.073410,159.327759 172.880493,158.927826 
	C172.781357,158.862869 172.897186,158.656052 173.149323,158.751160 
	C173.704681,158.684052 174.007889,158.521851 174.664917,158.289215 
	C178.337097,157.416733 180.751877,155.763046 180.991714,151.755554 
	C181.080261,151.535233 181.193802,151.073898 181.328491,150.958710 
	C181.506042,150.733963 181.607849,150.605545 181.580017,150.518616 
	C181.512878,150.308960 181.385117,150.118729 181.268646,149.508148 
	C181.332275,147.730179 181.409058,146.364700 181.799316,144.797607 
	C182.408463,143.015259 182.951736,141.435928 182.960388,139.853653 
	C183.025909,127.876762 182.986603,115.899300 182.863373,103.636353 
	C182.492355,102.584770 182.237946,101.818855 181.983536,101.052933 
M180.916077,161.821869 
	C180.916077,161.821869 180.685226,161.809341 180.685226,161.809341 
	C180.685226,161.809341 180.995361,162.003418 181.080566,162.177551 
	C181.080566,162.177551 181.310425,162.191666 181.310425,162.191666 
	C181.310425,162.191666 181.003220,161.995544 180.916077,161.821869 
M177.231033,163.306671 
	C177.464584,163.366989 177.698135,163.427307 177.931686,163.487610 
	C177.622482,163.323761 177.313293,163.159897 176.407883,162.531265 
	C174.479462,162.370483 172.551056,162.209686 170.622635,162.048889 
	C170.617126,162.367126 170.611633,162.685349 170.606125,163.003586 
	C172.736679,163.003586 174.867218,163.003586 177.231033,163.306671 
z"/>
<path fill="#023771" opacity="1.000000" stroke="none" 
	d="
M188.345871,154.321350 
	C187.555588,152.518524 186.131409,150.652771 186.107315,148.769119 
	C185.920959,134.204697 185.921875,119.635750 186.107712,105.071304 
	C186.131912,103.174171 187.539520,101.294685 188.620163,99.211357 
	C188.980545,99.461273 189.027100,99.906868 188.797195,100.901840 
	C188.651871,102.965141 188.783020,104.479065 188.914169,105.992989 
	C188.959595,110.028214 189.005020,114.063431 188.748566,118.899948 
	C188.379288,131.188324 188.311905,142.675400 188.244522,154.162476 
	C188.244522,154.162476 188.360519,154.250153 188.345871,154.321350 
z"/>
<path fill="#0A376A" opacity="1.000000" stroke="none" 
	d="
M188.525635,153.838440 
	C188.311905,142.675400 188.379288,131.188324 188.675446,119.359436 
	C188.871719,130.516556 188.839233,142.015488 188.525635,153.838440 
z"/>
<path fill="#E27B3B" opacity="1.000000" stroke="none" 
	d="
M249.777435,145.315598 
	C249.924942,147.590286 249.822525,150.172821 249.370285,152.882568 
	C249.189468,150.547653 249.358475,148.085556 249.777435,145.315598 
z"/>
<path fill="#0A376A" opacity="1.000000" stroke="none" 
	d="
M188.989929,105.582336 
	C188.783020,104.479065 188.651871,102.965141 188.722931,101.231583 
	C188.972000,102.398521 189.018860,103.785110 188.989929,105.582336 
z"/>
<path fill="#F2782E" opacity="1.000000" stroke="none" 
	d="
M220.042267,42.676743 
	C219.190002,44.178078 218.325333,45.453545 217.273026,47.032658 
	C208.804779,55.836193 200.534683,64.346382 192.237808,72.830353 
	C189.351486,75.781761 186.569305,78.872940 183.409973,81.504593 
	C181.630554,82.986824 179.179306,83.662552 176.609970,84.723145 
	C176.189224,84.744698 176.124207,84.853790 176.011826,84.505371 
	C173.795120,81.069778 175.578110,79.020584 177.686996,76.901558 
	C187.216492,67.326271 196.688705,57.693993 206.459137,47.966240 
	C207.611816,47.023487 208.486938,46.196735 209.670959,45.246422 
	C211.031860,43.745560 212.083862,42.368259 213.135864,40.990955 
	C215.191208,41.226242 217.246552,41.461533 219.657196,41.847797 
	C220.012497,41.998768 220.029861,42.450867 220.042267,42.676743 
z"/>
<path fill="#E18145" opacity="1.000000" stroke="none" 
	d="
M231.995270,55.613213 
	C231.371338,55.174950 230.685196,54.432877 229.994812,53.354103 
	C230.638062,53.781403 231.285553,54.545403 231.995270,55.613213 
z"/>
<path fill="#FD8539" opacity="1.000000" stroke="none" 
	d="
M65.753426,121.269684 
	C65.998207,123.046577 65.997490,125.090248 65.989265,127.572556 
	C60.942955,127.291916 55.892414,126.640587 50.878838,125.775146 
	C50.181252,125.654732 49.665771,124.479378 49.028282,123.400459 
	C52.900848,123.303635 56.816929,123.857124 60.718613,123.769531 
	C62.330952,123.733330 63.912422,122.322243 65.753426,121.269684 
z"/>
<path fill="#FD8539" opacity="1.000000" stroke="none" 
	d="
M24.635164,75.013123 
	C23.551682,76.297745 22.107698,77.596344 20.335701,78.951736 
	C21.430012,77.681389 22.852339,76.354248 24.635164,75.013123 
z"/>
<path fill="#0A376A" opacity="1.000000" stroke="none" 
	d="
M76.934837,164.364532 
	C77.902313,164.358841 78.994568,164.650589 79.880547,165.115967 
	C79.528000,165.465027 79.361160,165.618057 79.093773,165.898712 
	C78.362404,165.586517 77.711006,165.124252 76.934837,164.364532 
z"/>
<path fill="#FBE3A6" opacity="1.000000" stroke="none" 
	d="
M212.753571,40.893490 
	C212.083862,42.368259 211.031860,43.745560 209.353058,44.956974 
	C202.842667,43.303577 197.890427,44.242481 193.899918,49.412785 
	C191.691193,52.274529 188.632294,54.480099 185.619202,57.001545 
	C184.523239,57.687817 183.764709,58.353989 182.763947,59.244392 
	C178.339172,63.976322 174.156647,68.484024 169.678101,73.063332 
	C168.917709,73.738693 168.453339,74.342445 167.743973,74.961411 
	C167.498993,74.976624 167.008957,75.006119 166.663101,74.987274 
	C165.532593,74.288895 164.747955,73.609360 164.057022,72.609634 
	C165.437988,71.012039 166.786179,69.789810 168.001572,68.447350 
	C172.406921,63.581425 176.767700,58.675167 181.482605,53.783779 
	C184.324158,51.347679 186.828415,48.911926 189.332657,46.476173 
	C191.608231,44.561054 193.883804,42.645939 196.437988,40.490471 
	C201.934814,40.432087 207.153046,40.614056 212.753571,40.893490 
z"/>
<path fill="#123C6C" opacity="1.000000" stroke="none" 
	d="
M189.315704,46.004459 
	C186.828415,48.911926 184.324158,51.347679 181.492004,53.332870 
	C180.398270,47.724171 179.632462,42.566029 178.818817,37.014107 
	C176.983231,35.746944 175.245468,34.273491 173.397766,34.119595 
	C168.945770,33.748787 164.442337,33.995472 159.959656,33.993118 
	C159.941025,32.459175 159.922379,30.925230 160.435394,29.073240 
	C166.977356,28.742773 172.987671,28.730350 178.997971,28.717926 
	C186.362961,31.914482 189.464691,37.722729 189.315704,46.004459 
z"/>
<path fill="#D56D37" opacity="1.000000" stroke="none" 
	d="
M178.781555,28.429285 
	C172.987671,28.730350 166.977356,28.742773 160.516388,28.618881 
	C159.949631,26.029480 159.833557,23.576393 159.785126,20.710447 
	C161.443741,22.002956 163.034714,23.708324 164.791199,25.954311 
	C166.295929,26.646236 167.635101,26.797543 168.974289,26.948849 
	C169.729553,26.958946 170.484818,26.969044 171.617477,26.966928 
	C174.184952,27.350025 176.375046,27.745333 178.781555,28.429285 
z"/>
<path fill="#E58549" opacity="1.000000" stroke="none" 
	d="
M81.102463,169.272781 
	C81.665558,169.417633 82.285744,169.873169 82.987518,170.622757 
	C82.432587,170.472366 81.796074,170.027924 81.102463,169.272781 
z"/>
<path fill="#FD8B43" opacity="1.000000" stroke="none" 
	d="
M77.252060,168.212128 
	C77.881325,168.138321 78.747681,168.305496 79.868790,168.693665 
	C79.245407,168.760818 78.367287,168.606964 77.252060,168.212128 
z"/>
<path fill="#FB792A" opacity="1.000000" stroke="none" 
	d="
M168.704468,26.727257 
	C167.635101,26.797543 166.295929,26.646236 164.961777,26.241787 
	C166.122757,26.160982 167.278702,26.333324 168.704468,26.727257 
z"/>
<path fill="#0A376A" opacity="1.000000" stroke="none" 
	d="
M83.477524,166.083542 
	C86.394119,165.670624 89.770927,165.074081 93.150124,165.060196 
	C99.547867,165.033920 105.946976,165.342087 112.674530,165.764679 
	C103.315308,166.066376 93.627060,166.114670 83.477524,166.083542 
z"/>
<path fill="#0A376A" opacity="1.000000" stroke="none" 
	d="
M123.366760,166.082275 
	C123.858749,165.860519 124.722900,165.721359 125.796906,165.790710 
	C125.250824,166.054443 124.494873,166.109665 123.366760,166.082275 
z"/>
<path fill="#F9F7F7" opacity="1.000000" stroke="none" 
	d="
M83.643646,158.557922 
	C81.434944,156.886856 79.226242,155.215775 76.770592,152.873260 
	C76.554703,115.173805 76.585762,78.145782 76.616821,41.117756 
	C78.425407,39.224033 80.233986,37.330315 82.394562,35.660942 
	C82.746552,35.885288 83.037766,35.873730 83.037766,35.873730 
	C83.037766,35.873730 83.139458,35.649673 83.139458,35.649673 
	C87.474258,35.612110 91.809067,35.574547 96.625847,35.530579 
	C99.200233,40.056530 102.806145,41.219482 107.601288,40.983932 
	C114.398422,40.650047 121.226112,40.937946 128.506332,41.507149 
	C128.998199,65.722130 129.024475,89.390083 128.999390,113.419815 
	C128.008835,116.551514 127.069626,119.321426 126.017059,122.429726 
	C125.062141,124.571159 124.096672,126.328224 123.406845,128.187561 
	C122.248062,131.310852 121.264610,134.499222 120.089890,138.035065 
	C120.041031,138.662689 120.109673,138.915436 120.044312,139.514557 
	C121.164497,142.604416 122.755898,141.882324 124.800339,140.625595 
	C126.679970,139.470184 128.887054,138.847473 130.835266,138.352417 
	C130.161957,144.803604 129.603256,150.892426 129.011536,157.220444 
	C128.900879,157.773407 128.861984,158.091904 128.886887,158.545837 
	C128.911972,158.676575 128.967880,158.936859 128.510300,158.838013 
	C115.078232,158.715164 102.103737,158.691177 89.013519,158.498520 
	C88.554443,158.437378 88.211105,158.544891 87.575302,158.665588 
	C86.892487,158.676926 86.502144,158.675095 85.828979,158.507767 
	C84.911980,158.414154 84.277809,158.486038 83.643646,158.557922 
M113.003494,150.003067 
	C113.003494,150.003067 113.022018,150.023514 113.742447,149.547073 
	C113.858154,142.114075 113.960693,134.680847 114.095634,127.248207 
	C114.154961,123.980545 112.374268,123.745346 108.967720,124.460358 
	C103.353989,124.508392 97.740257,124.556427 91.324219,124.307640 
	C90.166527,125.248314 88.051201,126.144867 88.005501,127.136772 
	C87.693085,133.917465 87.844154,140.718430 87.781868,147.512299 
	C87.759499,149.951614 88.689102,150.929840 91.906281,150.171356 
	C93.233269,150.140442 94.560265,150.109528 96.674011,150.317093 
	C102.122047,150.219223 107.570076,150.121353 113.003494,150.003067 
M114.242218,90.075409 
	C113.252281,89.713867 112.265251,89.049477 111.271935,89.039955 
	C104.844696,88.978310 98.416077,89.059456 91.161377,88.960365 
	C90.221146,89.581886 88.478012,90.184395 88.462776,90.827827 
	C88.275391,98.739746 88.340691,106.657654 88.340691,115.101738 
	C93.654884,115.101738 98.264969,115.099754 102.875061,115.102127 
	C115.575790,115.108665 115.575790,115.109383 114.896446,101.484886 
	C117.121880,100.098557 119.547935,98.940620 121.491470,97.233368 
	C122.524712,96.325760 122.721924,94.466400 123.296501,93.036652 
	C121.863953,92.950974 120.351311,92.538811 119.019897,92.865410 
	C117.486916,93.241447 116.114098,94.270409 114.589317,94.320518 
	C114.455444,93.202728 114.321571,92.084938 114.242218,90.075409 
M114.065926,66.697800 
	C116.314056,65.313240 118.752548,64.152771 120.741615,62.463226 
	C122.011398,61.384651 122.616119,59.523106 123.519012,58.012600 
	C121.779350,57.971062 120.008865,57.717789 118.311203,57.964836 
	C117.237686,58.121059 116.272797,59.023792 115.116760,58.685017 
	C114.946686,57.095360 114.776619,55.505699 114.594955,53.807701 
	C105.924438,53.807701 97.656242,53.807701 89.149765,53.807701 
	C89.149765,61.760902 89.149765,69.390541 89.071304,77.820946 
	C90.553246,78.545433 92.002647,79.791901 93.523827,79.886719 
	C96.780067,80.089676 100.076630,79.746941 103.350700,79.535217 
	C106.905579,79.305328 112.337173,80.218590 113.553787,78.382599 
	C115.285614,75.769104 113.920181,71.103218 114.065926,66.697800 
z"/>
<path fill="#E1E1E0" opacity="1.000000" stroke="none" 
	d="
M129.050751,113.058029 
	C129.024475,89.390083 128.998199,65.722130 128.965210,41.594955 
	C138.025986,40.941555 147.093491,40.747375 156.446625,40.283199 
	C157.764862,38.703377 158.797485,37.393551 160.343750,35.796638 
	C166.860489,36.142330 172.863571,36.775108 178.866653,37.407890 
	C179.632462,42.566029 180.398270,47.724171 181.154694,53.333218 
	C176.767700,58.675167 172.406921,63.581425 168.001572,68.447350 
	C166.786179,69.789810 165.437988,71.012039 163.719376,72.696472 
	C161.935532,75.211090 158.998795,77.969322 159.544235,79.297417 
	C160.881775,82.554131 159.055435,83.826706 157.448761,85.482780 
	C153.648453,89.399986 149.810287,93.284042 145.885910,97.076447 
	C140.322067,102.453163 134.666901,107.735413 129.050751,113.058029 
z"/>
<path fill="#0E3460" opacity="1.000000" stroke="none" 
	d="
M178.818817,37.014107 
	C172.863571,36.775108 166.860489,36.142330 160.401428,35.484627 
	C159.936508,35.215164 159.927567,34.970634 159.939133,34.359612 
	C164.442337,33.995472 168.945770,33.748787 173.397766,34.119595 
	C175.245468,34.273491 176.983231,35.746944 178.818817,37.014107 
z"/>
<path fill="#08316D" opacity="1.000000" stroke="none" 
	d="
M76.271843,41.338402 
	C76.585762,78.145782 76.554703,115.173805 76.541191,152.595367 
	C76.036041,151.570953 75.513336,150.152985 74.985931,148.367859 
	C74.983528,147.246552 74.985817,146.492401 74.991257,144.894348 
	C74.987770,112.373573 74.981148,80.696701 74.974533,49.019825 
	C75.291977,46.532898 75.609428,44.045975 76.271843,41.338402 
z"/>
<path fill="#0D3F86" opacity="1.000000" stroke="none" 
	d="
M74.733841,49.013268 
	C74.981148,80.696701 74.987770,112.373573 74.987610,144.517303 
	C74.980820,144.984146 74.491150,144.994812 74.245804,144.528931 
	C74.004189,112.374687 74.007919,80.686333 74.011658,48.997986 
	C74.011658,48.997986 74.493149,49.006710 74.733841,49.013268 
z"/>
<path fill="#053D6E" opacity="1.000000" stroke="none" 
	d="
M73.760239,49.328472 
	C74.007919,80.686333 74.004189,112.374687 74.000931,144.531754 
	C73.668846,143.586533 73.048782,142.173141 73.046120,140.758575 
	C72.990654,111.362488 73.000435,81.966270 73.027138,52.570114 
	C73.028023,51.599583 73.341217,50.629337 73.760239,49.328472 
z"/>
<path fill="#2DC6EE" opacity="1.000000" stroke="none" 
	d="
M83.144714,35.541046 
	C83.139458,35.649673 83.037766,35.873730 83.037766,35.873730 
	C83.037766,35.873730 82.746552,35.885288 82.741150,35.788063 
	C82.735748,35.690834 82.831070,35.429379 82.831070,35.429379 
	C82.831070,35.429379 83.149963,35.432419 83.144714,35.541046 
z"/>
<path fill="#092F60" opacity="1.000000" stroke="none" 
	d="
M89.129250,158.667175 
	C102.103737,158.691177 115.078232,158.715164 128.522308,159.092804 
	C128.999023,159.616333 129.006165,159.786224 129.013306,159.956116 
	C129.013306,159.956116 128.995651,159.989716 128.520554,159.999847 
	C115.040672,160.015289 102.035889,160.020615 89.031105,160.025940 
	C87.554153,159.878067 86.077209,159.730194 84.656952,159.334076 
	C85.179695,158.948303 85.645752,158.810791 86.111809,158.673264 
	C86.502144,158.675095 86.892487,158.676926 87.889351,158.781708 
	C88.707008,158.812149 88.918129,158.739670 89.129250,158.667175 
z"/>
<path fill="#013D85" opacity="1.000000" stroke="none" 
	d="
M89.360184,160.270996 
	C102.035889,160.020615 115.040672,160.015289 128.511276,160.016403 
	C123.299759,160.351135 117.622414,160.679443 111.478683,161.009033 
	C103.904617,160.845581 96.796944,160.680817 89.360184,160.270996 
z"/>
<path fill="#94A6BC" opacity="1.000000" stroke="none" 
	d="
M85.828979,158.507767 
	C85.645752,158.810791 85.179695,158.948303 84.347778,159.134125 
	C83.981918,159.182434 83.743942,158.907349 83.693794,158.732635 
	C84.277809,158.486038 84.911980,158.414154 85.828979,158.507767 
z"/>
<path fill="#E1E1E0" opacity="1.000000" stroke="none" 
	d="
M129.044556,156.981262 
	C129.603256,150.892426 130.161957,144.803604 131.020386,138.071518 
	C133.246811,136.339905 135.173523,135.251572 137.100235,134.163239 
	C140.408936,135.015656 142.924637,134.298492 145.504684,131.650726 
	C155.436829,121.457848 165.716370,111.604332 175.753342,101.511864 
	C177.328094,99.928421 178.464905,98.520195 180.741638,101.093674 
	C180.927200,101.718842 180.876541,101.891449 180.609894,102.408195 
	C180.295898,118.560493 180.189011,134.368637 180.134308,150.176956 
	C180.132233,150.775696 180.635422,151.376190 180.903168,151.975861 
	C180.751877,155.763046 178.337097,157.416733 174.413696,158.205719 
	C173.504807,158.347122 173.200989,158.501587 172.897186,158.656052 
	C172.897186,158.656052 172.781357,158.862869 172.545898,158.830551 
	C171.872940,158.658218 171.435410,158.518204 170.783508,158.080338 
	C168.815018,157.522278 167.062225,157.047058 165.306625,157.036499 
	C153.219589,156.963776 141.131989,156.988129 129.044556,156.981262 
z"/>
<path fill="#E5CF99" opacity="1.000000" stroke="none" 
	d="
M176.252701,84.746468 
	C177.045654,89.437012 179.826263,88.521164 182.270981,86.564186 
	C184.832703,84.513535 186.917145,81.871918 189.245575,79.523682 
	C197.663437,71.034218 206.086197,62.549503 214.547546,54.103500 
	C215.068359,53.583622 215.938049,53.413239 217.043274,52.892944 
	C218.111008,58.567879 214.789169,62.250565 211.833496,65.370049 
	C203.972061,73.667198 195.529861,81.412407 187.377243,89.436653 
	C185.612350,91.173752 184.293732,93.409592 182.389160,94.943336 
	C181.146622,95.943939 178.651230,97.025764 177.700302,96.449295 
	C174.661636,94.607155 173.188049,96.296593 171.359375,98.119347 
	C160.395050,109.048233 149.388382,119.934624 137.793427,130.918915 
	C135.765976,130.018250 134.341003,129.033920 132.936066,127.802704 
	C132.956100,127.555824 132.993210,127.062889 133.078125,126.729103 
	C142.827652,116.734764 152.422150,107.002548 162.188309,97.445770 
	C166.659454,93.070480 171.468430,89.040421 176.124207,84.853790 
	C176.124207,84.853790 176.189224,84.744698 176.252701,84.746468 
z"/>
<path fill="#DFA25F" opacity="1.000000" stroke="none" 
	d="
M132.916016,128.049591 
	C134.341003,129.033920 135.765976,130.018250 137.495117,131.102707 
	C137.620758,131.989166 137.442261,132.775513 137.181992,133.862549 
	C135.173523,135.251572 133.246811,136.339905 131.134979,137.709167 
	C128.887054,138.847473 126.679970,139.470184 124.800339,140.625595 
	C122.755898,141.882324 121.164497,142.604416 120.341179,139.492386 
	C121.176094,138.420944 121.580139,137.718048 122.341827,136.984833 
	C126.104980,133.986206 129.510498,131.017899 132.916016,128.049591 
z"/>
<path fill="#526C8D" opacity="1.000000" stroke="none" 
	d="
M180.825897,102.064064 
	C180.876541,101.891449 180.927200,101.718842 181.004730,101.277832 
	C181.031616,101.009445 181.510773,100.971443 181.747162,101.012192 
	C182.237946,101.818855 182.492355,102.584770 182.556274,103.838455 
	C182.024872,104.677505 181.683975,105.028793 181.223816,105.063812 
	C181.011673,103.853050 180.918793,102.958557 180.825897,102.064064 
z"/>
<path fill="#032F60" opacity="1.000000" stroke="none" 
	d="
M181.343079,105.380074 
	C181.683975,105.028793 182.024872,104.677505 182.672882,104.124123 
	C182.986603,115.899300 183.025909,127.876762 182.960388,139.853653 
	C182.951736,141.435928 182.408463,143.015259 181.703552,144.337311 
	C181.310577,131.179138 181.326828,118.279610 181.343079,105.380074 
z"/>
<path fill="#DFE5F1" opacity="1.000000" stroke="none" 
	d="
M181.223816,105.063812 
	C181.326828,118.279610 181.310577,131.179138 181.390091,144.538956 
	C181.409058,146.364700 181.332275,147.730179 181.162872,149.790131 
	C181.111420,150.681030 181.152603,150.877457 181.193802,151.073898 
	C181.193802,151.073898 181.080261,151.535233 180.991714,151.755554 
	C180.635422,151.376190 180.132233,150.775696 180.134308,150.176956 
	C180.189011,134.368637 180.295898,118.560493 180.609894,102.408195 
	C180.918793,102.958557 181.011673,103.853050 181.223816,105.063812 
z"/>
<path fill="#052A57" opacity="1.000000" stroke="none" 
	d="
M170.997894,158.378189 
	C171.435410,158.518204 171.872940,158.658218 172.645050,158.895508 
	C171.073410,159.327759 169.169022,159.940170 167.260666,159.952759 
	C154.823395,160.034821 142.385300,159.986771 129.480377,159.968689 
	C129.006165,159.786224 128.999023,159.616333 128.979889,159.191650 
	C128.967880,158.936859 128.911972,158.676575 129.354141,158.650375 
	C143.530167,158.542175 157.264038,158.460190 170.997894,158.378189 
z"/>
<path fill="#0B3F78" opacity="1.000000" stroke="none" 
	d="
M176.997772,163.003586 
	C174.867218,163.003586 172.736679,163.003586 170.606125,163.003586 
	C170.611633,162.685349 170.617126,162.367126 170.622635,162.048889 
	C172.551056,162.209686 174.479462,162.370483 176.703949,162.765625 
	C177.000000,163.000000 176.997772,163.003586 176.997772,163.003586 
z"/>
<path fill="#0B3F78" opacity="1.000000" stroke="none" 
	d="
M177.002045,162.998016 
	C177.313293,163.159897 177.622482,163.323761 177.931686,163.487610 
	C177.698135,163.427307 177.464584,163.366989 177.114410,163.155121 
	C176.997772,163.003586 177.000000,163.000000 177.002045,162.998016 
z"/>
<path fill="#526C8D" opacity="1.000000" stroke="none" 
	d="
M181.328491,150.958710 
	C181.152603,150.877457 181.111420,150.681030 181.176025,150.202637 
	C181.385117,150.118729 181.512878,150.308960 181.580017,150.518616 
	C181.607849,150.605545 181.506042,150.733963 181.328491,150.958710 
z"/>
<path fill="#0B3F78" opacity="1.000000" stroke="none" 
	d="
M181.003220,161.995544 
	C181.003220,161.995544 181.310425,162.191666 181.310425,162.191666 
	C181.310425,162.191666 181.080566,162.177551 181.040283,162.088776 
	C181.000000,162.000000 181.003220,161.995544 181.003220,161.995544 
z"/>
<path fill="#0B3F78" opacity="1.000000" stroke="none" 
	d="
M180.997681,162.001709 
	C180.995361,162.003418 180.685226,161.809341 180.685226,161.809341 
	C180.685226,161.809341 180.916077,161.821869 180.959656,161.908707 
	C181.003220,161.995544 181.000000,162.000000 180.997681,162.001709 
z"/>
<path fill="#94A6BC" opacity="1.000000" stroke="none" 
	d="
M173.149323,158.751160 
	C173.200989,158.501587 173.504807,158.347122 174.059845,158.276154 
	C174.007889,158.521851 173.704681,158.684052 173.149323,158.751160 
z"/>
<path fill="#FCE7AD" opacity="1.000000" stroke="none" 
	d="
M176.011826,84.505371 
	C171.468430,89.040421 166.659454,93.070480 162.188309,97.445770 
	C152.422150,107.002548 142.827652,116.734764 132.785049,126.569275 
	C130.314850,125.192589 128.222641,123.641960 126.130417,122.091331 
	C127.069626,119.321426 128.008835,116.551514 128.999390,113.419823 
	C134.666901,107.735413 140.322067,102.453163 145.885910,97.076447 
	C149.810287,93.284042 153.648453,89.399986 157.448761,85.482780 
	C159.055435,83.826706 160.881775,82.554131 159.544235,79.297417 
	C158.998795,77.969322 161.935532,75.211090 163.625656,73.016678 
	C164.747955,73.609360 165.532593,74.288895 166.523499,75.297562 
	C166.851395,76.833984 166.973022,78.041267 167.094650,79.248550 
	C168.229904,78.827248 169.676834,78.715668 170.451508,77.936058 
	C177.122955,71.222107 183.436234,64.134140 190.343704,57.679249 
	C194.861343,53.457611 198.591873,47.428745 206.181564,48.082245 
	C196.688705,57.693993 187.216492,67.326271 177.686996,76.901558 
	C175.578110,79.020584 173.795120,81.069778 176.011826,84.505371 
M149.454727,103.962601 
	C154.604736,98.643723 159.754761,93.324844 165.732178,87.151428 
	C163.464783,86.788124 161.967529,86.119942 161.536316,86.541702 
	C150.481873,97.353798 139.538788,108.279732 128.576309,119.185844 
	C129.077103,119.859619 129.577881,120.533394 130.078674,121.207161 
	C131.911819,120.095238 134.008011,119.260834 135.528839,117.819389 
	C140.105453,113.481697 144.457977,108.907562 149.454727,103.962601 
z"/>
<path fill="#FBF1C9" opacity="1.000000" stroke="none" 
	d="
M206.459137,47.966240 
	C198.591873,47.428745 194.861343,53.457611 190.343704,57.679249 
	C183.436234,64.134140 177.122955,71.222107 170.451508,77.936058 
	C169.676834,78.715668 168.229904,78.827248 167.094650,79.248550 
	C166.973022,78.041267 166.851395,76.833984 166.869354,75.316406 
	C167.008957,75.006119 167.498993,74.976624 168.047272,74.904755 
	C169.055069,74.219162 169.514603,73.605446 169.974121,72.991730 
	C174.156647,68.484024 178.339172,63.976322 183.076416,59.194221 
	C184.406281,58.273697 185.181458,57.627567 185.956619,56.981438 
	C188.632294,54.480099 191.691193,52.274529 193.899918,49.412785 
	C197.890427,44.242481 202.842667,43.303577 209.044159,45.080536 
	C208.486938,46.196735 207.611816,47.023487 206.459137,47.966240 
z"/>
<path fill="#FCE7AD" opacity="1.000000" stroke="none" 
	d="
M185.619202,57.001541 
	C185.181458,57.627567 184.406281,58.273697 183.318649,58.969994 
	C183.764709,58.353989 184.523239,57.687817 185.619202,57.001541 
z"/>
<path fill="#FCE7AD" opacity="1.000000" stroke="none" 
	d="
M169.678101,73.063324 
	C169.514603,73.605446 169.055069,74.219162 168.292236,74.889542 
	C168.453339,74.342445 168.917709,73.738693 169.678101,73.063324 
z"/>
<path fill="#19447A" opacity="1.000000" stroke="none" 
	d="
M114.671730,95.015808 
	C116.114098,94.270409 117.486916,93.241447 119.019897,92.865410 
	C120.351311,92.538811 121.863953,92.950974 123.296509,93.036652 
	C122.721924,94.466400 122.524712,96.325760 121.491470,97.233368 
	C119.547935,98.940620 117.121880,100.098557 114.395752,101.785812 
	C113.043114,102.714676 112.191177,103.342598 110.974648,104.035309 
	C98.578781,111.750534 96.713150,111.053261 94.846756,98.178307 
	C94.780647,97.722214 94.995621,97.225380 95.053856,96.893974 
	C101.497322,94.170204 99.653305,100.903595 102.461464,103.352921 
	C105.939766,100.748184 109.442368,98.125252 113.220230,95.374969 
	C113.887566,95.170349 114.279648,95.093079 114.671730,95.015808 
z"/>
<path fill="#F99454" opacity="1.000000" stroke="none" 
	d="
M111.339241,103.970520 
	C112.191177,103.342598 113.043114,102.714676 114.154327,102.067154 
	C115.575790,115.109383 115.575790,115.108665 102.875061,115.102127 
	C98.264969,115.099754 93.654884,115.101738 88.340691,115.101738 
	C88.340691,106.657654 88.275391,98.739746 88.462776,90.827827 
	C88.478012,90.184395 90.221146,89.581886 91.389969,89.218811 
	C91.067627,90.146416 90.516701,90.815575 89.907036,91.990463 
	C89.825127,96.974648 89.420868,101.498070 89.941818,105.912300 
	C90.196884,108.073586 91.994194,111.647408 93.398895,111.801720 
	C99.396057,112.460503 105.507149,112.082108 111.931595,112.082108 
	C111.697678,108.878922 111.518463,106.424721 111.339241,103.970520 
z"/>
<path fill="#F78539" opacity="1.000000" stroke="none" 
	d="
M89.149765,77.020172 
	C89.149765,69.390541 89.149765,61.760902 89.149765,53.807701 
	C97.656242,53.807701 105.924438,53.807701 114.594955,53.807701 
	C114.776619,55.505699 114.946686,57.095360 114.987404,59.314674 
	C114.074707,60.316021 113.291374,60.687702 112.517380,60.682274 
	C112.407310,59.039646 112.287903,57.774136 112.135750,56.161499 
	C106.305267,56.161499 100.696602,56.234921 95.091339,56.128933 
	C92.490227,56.079750 91.607857,57.168926 91.664360,59.682659 
	C91.794273,65.461807 91.747238,71.244942 91.444168,77.029404 
	C90.460793,77.028290 89.805283,77.024231 89.149765,77.020172 
z"/>
<path fill="#194176" opacity="1.000000" stroke="none" 
	d="
M112.508041,61.059391 
	C113.291374,60.687702 114.074707,60.316021 115.058609,59.768013 
	C116.272797,59.023792 117.237686,58.121059 118.311203,57.964836 
	C120.008865,57.717789 121.779350,57.971062 123.519012,58.012600 
	C122.616119,59.523106 122.011398,61.384651 120.741615,62.463226 
	C118.752548,64.152771 116.314056,65.313240 113.612473,67.089691 
	C112.733826,67.728310 112.308640,67.975029 111.575943,68.289688 
	C109.633705,69.278709 107.998985,70.199791 106.031281,71.037476 
	C105.364212,69.523682 105.030128,68.093285 104.712044,66.704910 
	C104.728043,66.746933 104.638115,66.745796 104.899612,66.669708 
	C105.426575,66.353706 105.692032,66.113808 106.153305,65.604935 
	C108.402092,63.910439 110.455070,62.484917 112.508041,61.059391 
z"/>
<path fill="#F5B56B" opacity="1.000000" stroke="none" 
	d="
M126.017059,122.429726 
	C128.222641,123.641960 130.314850,125.192589 132.700134,126.903061 
	C132.993210,127.062889 132.956100,127.555824 132.936066,127.802704 
	C129.510498,131.017899 126.104980,133.986206 122.092438,136.987640 
	C121.059402,137.233932 120.633400,137.447067 120.207397,137.660202 
	C121.264610,134.499222 122.248062,131.310852 123.406845,128.187561 
	C124.096672,126.328224 125.062141,124.571159 126.017059,122.429726 
z"/>
<path fill="#E3E8ED" opacity="1.000000" stroke="none" 
	d="
M170.783508,158.080338 
	C157.264038,158.460190 143.530167,158.542175 129.329056,158.519653 
	C128.861984,158.091904 128.900879,157.773407 129.011536,157.220459 
	C141.131989,156.988129 153.219589,156.963776 165.306625,157.036499 
	C167.062225,157.047058 168.815018,157.522278 170.783508,158.080338 
z"/>
<path fill="#FA8F4F" opacity="1.000000" stroke="none" 
	d="
M109.878021,124.600006 
	C112.374268,123.745346 114.154961,123.980545 114.095634,127.248207 
	C113.960693,134.680847 113.858154,142.114075 113.335762,149.491928 
	C111.588707,148.935242 110.248337,148.433716 109.298309,147.780670 
	C109.777390,140.715668 109.866127,133.802200 109.990211,126.602997 
	C109.976387,125.744850 109.927200,125.172424 109.878021,124.600006 
z"/>
<path fill="#FA8F4F" opacity="1.000000" stroke="none" 
	d="
M91.115044,150.077911 
	C88.689102,150.929840 87.759499,149.951614 87.781868,147.512299 
	C87.844154,140.718430 87.693085,133.917465 88.005501,127.136772 
	C88.051201,126.144867 90.166527,125.248314 91.701210,124.724556 
	C92.015465,125.495399 91.952728,125.849335 91.509949,126.389008 
	C91.413803,133.721024 91.697716,140.867294 91.671997,148.084229 
	C90.783745,148.312881 90.205116,148.470886 89.626488,148.628876 
	C90.122673,149.111893 90.618858,149.594894 91.115044,150.077911 
z"/>
<path fill="#FB761F" opacity="1.000000" stroke="none" 
	d="
M111.883453,68.221748 
	C112.308640,67.975029 112.733826,67.728310 113.518463,67.397850 
	C113.920181,71.103218 115.285614,75.769104 113.553787,78.382599 
	C112.337173,80.218590 106.905579,79.305328 103.350700,79.535217 
	C100.076630,79.746941 96.780067,80.089676 93.523827,79.886719 
	C92.002647,79.791901 90.553246,78.545433 89.110535,77.420555 
	C89.805283,77.024231 90.460793,77.028290 91.738037,77.320137 
	C96.369400,77.708549 100.378555,77.862648 104.388763,77.897911 
	C111.299187,77.958694 112.391953,77.891586 111.989220,70.702324 
	C111.942924,69.876076 111.918190,69.048637 111.883453,68.221748 
z"/>
<path fill="#FA8A42" opacity="1.000000" stroke="none" 
	d="
M89.965775,91.484741 
	C90.516701,90.815575 91.067627,90.146416 91.803238,89.285522 
	C98.416077,89.059456 104.844696,88.978310 111.271935,89.039955 
	C112.265251,89.049477 113.252281,89.713867 114.005890,90.562851 
	C113.494110,91.134491 113.249084,91.272644 112.688431,91.587509 
	C111.860687,91.654228 111.379005,91.598198 110.685509,91.412552 
	C109.685844,91.366058 108.897980,91.449188 107.717300,91.601273 
	C106.533585,91.632935 105.742699,91.595665 104.856369,91.476105 
	C104.507584,91.286003 104.276306,91.323723 103.618172,91.577545 
	C100.461838,91.593765 97.754433,91.539429 95.002686,91.327377 
	C94.622841,91.273529 94.287323,91.377396 93.553772,91.552933 
	C92.092422,91.577972 91.029099,91.531357 89.965775,91.484741 
z"/>
<path fill="#FB710F" opacity="1.000000" stroke="none" 
	d="
M91.889999,126.203262 
	C91.952728,125.849335 92.015465,125.495399 92.102364,124.872971 
	C97.740257,124.556427 103.353989,124.508392 109.422867,124.530182 
	C109.927200,125.172424 109.976387,125.744850 109.527664,126.647507 
	C103.316513,126.719589 97.603256,126.461426 91.889999,126.203262 
z"/>
<path fill="#F9740D" opacity="1.000000" stroke="none" 
	d="
M91.510666,150.124634 
	C90.618858,149.594894 90.122673,149.111893 89.626488,148.628876 
	C90.205116,148.470886 90.783745,148.312881 92.083801,148.036896 
	C94.183060,147.932327 95.560905,147.945770 97.386978,148.054504 
	C100.572113,148.088425 103.309013,148.027069 106.401276,147.909805 
	C107.473740,147.879990 108.190849,147.906097 108.907967,147.932190 
	C110.248337,148.433716 111.588707,148.935242 112.975548,149.730148 
	C113.022018,150.023514 113.003494,150.003067 112.548317,149.926819 
	C106.691177,149.926590 101.289215,150.002609 95.887253,150.078629 
	C94.560265,150.109528 93.233269,150.140442 91.510666,150.124634 
z"/>
<path fill="#FA8F4F" opacity="1.000000" stroke="none" 
	d="
M96.280632,150.197861 
	C101.289215,150.002609 106.691177,149.926590 112.555626,149.937027 
	C107.570076,150.121353 102.122047,150.219223 96.280632,150.197861 
z"/>
<path fill="#F99454" opacity="1.000000" stroke="none" 
	d="
M113.034485,91.464760 
	C113.249084,91.272644 113.494110,91.134491 113.978638,91.008713 
	C114.321571,92.084938 114.455444,93.202728 114.630524,94.668167 
	C114.279648,95.093079 113.887566,95.170349 113.246086,95.101845 
	C113.009285,93.792305 113.021889,92.628532 113.034485,91.464760 
z"/>
<path fill="#45322E" opacity="1.000000" stroke="none" 
	d="
M120.089890,138.035065 
	C120.633400,137.447067 121.059402,137.233932 121.734795,137.017960 
	C121.580139,137.718048 121.176094,138.420944 120.475174,139.146027 
	C120.109673,138.915436 120.041031,138.662689 120.089890,138.035065 
z"/>
<path fill="#94A6BC" opacity="1.000000" stroke="none" 
	d="
M89.013519,158.498520 
	C88.918129,158.739670 88.707008,158.812149 88.181824,158.768524 
	C88.211105,158.544891 88.554443,158.437378 89.013519,158.498520 
z"/>
<path fill="#FEEEC8" opacity="1.000000" stroke="none" 
	d="
M149.176315,104.194122 
	C144.457977,108.907562 140.105453,113.481697 135.528839,117.819389 
	C134.008011,119.260834 131.911819,120.095238 130.078674,121.207161 
	C129.577881,120.533394 129.077103,119.859619 128.576309,119.185844 
	C139.538788,108.279732 150.481873,97.353798 161.536316,86.541702 
	C161.967529,86.119942 163.464783,86.788124 165.732178,87.151428 
	C159.754761,93.324844 154.604736,98.643723 149.176315,104.194122 
z"/>
<path fill="#F1F2F0" opacity="1.000000" stroke="none" 
	d="
M112.688431,91.587509 
	C113.021889,92.628532 113.009285,93.792305 112.970833,95.229202 
	C109.442368,98.125252 105.939766,100.748184 102.461464,103.352921 
	C99.653305,100.903595 101.497322,94.170204 95.053856,96.893974 
	C94.995621,97.225380 94.780647,97.722214 94.846756,98.178307 
	C96.713150,111.053261 98.578781,111.750534 110.974648,104.035316 
	C111.518463,106.424721 111.697678,108.878922 111.931595,112.082108 
	C105.507149,112.082108 99.396057,112.460503 93.398895,111.801720 
	C91.994194,111.647408 90.196884,108.073586 89.941818,105.912300 
	C89.420868,101.498070 89.825127,96.974648 89.907043,91.990471 
	C91.029099,91.531357 92.092422,91.577972 93.827408,91.605911 
	C94.681717,91.553192 94.864365,91.519135 95.047020,91.485092 
	C97.754433,91.539429 100.461838,91.593765 103.836029,91.646912 
	C104.502815,91.645721 104.951813,91.558388 104.951813,91.558388 
	C105.742699,91.595665 106.533585,91.632935 108.057449,91.704926 
	C109.492729,91.673813 110.195023,91.607994 110.897316,91.542175 
	C111.379005,91.598198 111.860687,91.654228 112.688431,91.587509 
z"/>
<path fill="#F1EEEB" opacity="1.000000" stroke="none" 
	d="
M111.575943,68.289688 
	C111.918190,69.048637 111.942924,69.876076 111.989220,70.702324 
	C112.391953,77.891586 111.299187,77.958694 104.388763,77.897911 
	C100.378555,77.862648 96.369400,77.708549 92.065895,77.317192 
	C91.747238,71.244942 91.794273,65.461807 91.664360,59.682659 
	C91.607857,57.168926 92.490227,56.079750 95.091339,56.128933 
	C100.696602,56.234921 106.305267,56.161499 112.135750,56.161499 
	C112.287903,57.774136 112.407310,59.039646 112.517380,60.682274 
	C110.455070,62.484917 108.402092,63.910439 105.878830,65.656677 
	C105.151733,66.233528 104.894928,66.489662 104.638115,66.745796 
	C104.638115,66.745796 104.728043,66.746933 104.382095,66.811188 
	C103.042053,66.714149 101.489624,66.881165 101.163712,66.326942 
	C100.347679,64.939217 100.260048,63.138550 99.531181,61.677677 
	C99.169250,60.952259 98.023109,60.185165 97.261162,60.214008 
	C96.498787,60.242859 95.046814,61.445946 95.141922,61.782265 
	C96.288818,65.837540 97.666786,69.827469 98.984520,73.834427 
	C101.444435,72.929916 103.904350,72.025398 106.364265,71.120880 
	C107.998985,70.199791 109.633705,69.278709 111.575943,68.289688 
z"/>
<path fill="#144177" opacity="1.000000" stroke="none" 
	d="
M106.031281,71.037483 
	C103.904350,72.025398 101.444435,72.929916 98.984520,73.834427 
	C97.666786,69.827469 96.288818,65.837540 95.141922,61.782265 
	C95.046814,61.445946 96.498787,60.242859 97.261162,60.214008 
	C98.023109,60.185165 99.169250,60.952259 99.531181,61.677677 
	C100.260048,63.138550 100.347679,64.939217 101.163712,66.326942 
	C101.489624,66.881165 103.042053,66.714149 104.366104,66.769165 
	C105.030128,68.093285 105.364212,69.523682 106.031281,71.037483 
z"/>
<path fill="#144177" opacity="1.000000" stroke="none" 
	d="
M104.899612,66.669708 
	C104.894928,66.489662 105.151733,66.233528 105.683014,65.925652 
	C105.692032,66.113808 105.426575,66.353706 104.899612,66.669708 
z"/>
<path fill="#FAF8F7" opacity="1.000000" stroke="none" 
	d="
M96.938744,147.959213 
	C95.560905,147.945770 94.183060,147.932327 92.393425,147.966217 
	C91.697716,140.867294 91.413803,133.721024 91.509949,126.389008 
	C97.603256,126.461426 103.316513,126.719589 109.492310,126.933243 
	C109.866127,133.802200 109.777390,140.715668 109.298309,147.780670 
	C108.190849,147.906097 107.473740,147.879990 106.037720,147.800339 
	C102.525459,147.817596 99.732101,147.888412 96.938744,147.959213 
z"/>
<path fill="#F99454" opacity="1.000000" stroke="none" 
	d="
M110.685509,91.412552 
	C110.195023,91.607994 109.492729,91.673813 108.450279,91.635979 
	C108.897980,91.449188 109.685844,91.366058 110.685509,91.412552 
z"/>
<path fill="#F99454" opacity="1.000000" stroke="none" 
	d="
M95.002686,91.327377 
	C94.864365,91.519135 94.681717,91.553192 94.225433,91.534256 
	C94.287323,91.377396 94.622841,91.273529 95.002686,91.327377 
z"/>
<path fill="#F99454" opacity="1.000000" stroke="none" 
	d="
M104.856369,91.476105 
	C104.951813,91.558388 104.502815,91.645721 104.284958,91.576355 
	C104.276306,91.323723 104.507584,91.286003 104.856369,91.476105 
z"/>
<path fill="#FA8F4F" opacity="1.000000" stroke="none" 
	d="
M97.386978,148.054504 
	C99.732101,147.888412 102.525459,147.817596 105.682373,147.856247 
	C103.309013,148.027069 100.572113,148.088425 97.386978,148.054504 
z"/>
</svg>